<svg xmlns="http://www.w3.org/2000/svg" width="805" height="600"><rect width="805" height="600" x="0" y="0" fill="#FFFFFF" id="backgorund"/><g id="viz"><clipPath id="serieClipPath"><rect x="-50" y="-10" width="805" height="600"/></clipPath><g transform="translate(0,0)"><g transform="translate(50,10)" clip-path="url(#serieClipPath)"><g id="axis"><g transform="translate(0,570)" fill="none" font-size="10" font-family="sans-serif" text-anchor="middle"><path class="domain" stroke="currentColor" d="M0.5,6V0.5H740.5V6"/><g class="tick" opacity="1" transform="translate(0.5,0)"><line stroke="currentColor" y2="6"/><text fill="currentColor" y="9" dy="0.71em">Jan 03</text></g><g class="tick" opacity="1" transform="translate(57.42307692307693,0)"><line stroke="currentColor" y2="6"/><text fill="currentColor" y="9" dy="0.71em">Jan 10</text></g><g class="tick" opacity="1" transform="translate(114.34615384615385,0)"><line stroke="currentColor" y2="6"/><text fill="currentColor" y="9" dy="0.71em">Jan 17</text></g><g class="tick" opacity="1" transform="translate(171.26923076923077,0)"><line stroke="currentColor" y2="6"/><text fill="currentColor" y="9" dy="0.71em">Jan 24</text></g><g class="tick" opacity="1" transform="translate(228.1923076923077,0)"><line stroke="currentColor" y2="6"/><text fill="currentColor" y="9" dy="0.71em">Jan 31</text></g><g class="tick" opacity="1" transform="translate(285.11538461538464,0)"><line stroke="currentColor" y2="6"/><text fill="currentColor" y="9" dy="0.71em">Feb 07</text></g><g class="tick" opacity="1" transform="translate(342.03846153846155,0)"><line stroke="currentColor" y2="6"/><text fill="currentColor" y="9" dy="0.71em">Feb 14</text></g><g class="tick" opacity="1" transform="translate(398.96153846153845,0)"><line stroke="currentColor" y2="6"/><text fill="currentColor" y="9" dy="0.71em">Feb 21</text></g><g class="tick" opacity="1" transform="translate(455.8846153846154,0)"><line stroke="currentColor" y2="6"/><text fill="currentColor" y="9" dy="0.71em">Feb 28</text></g><g class="tick" opacity="1" transform="translate(512.8076923076923,0)"><line stroke="currentColor" y2="6"/><text fill="currentColor" y="9" dy="0.71em">Mar 06</text></g><g class="tick" opacity="1" transform="translate(569.7307692307693,0)"><line stroke="currentColor" y2="6"/><text fill="currentColor" y="9" dy="0.71em">Mar 13</text></g><g class="tick" opacity="1" transform="translate(626.6538461538462,0)"><line stroke="currentColor" y2="6"/><text fill="currentColor" y="9" dy="0.71em">Mar 20</text></g><g class="tick" opacity="1" transform="translate(683.5769230769231,0)"><line stroke="currentColor" y2="6"/><text fill="currentColor" y="9" dy="0.71em">Mar 27</text></g><g class="tick" opacity="1" transform="translate(740.5,0)"><line stroke="currentColor" y2="6"/><text fill="currentColor" y="9" dy="0.71em">Apr 03</text></g><text x="740" dy="-5" text-anchor="end" style="font-family: Arial, sans-serif; font-size: 12px; fill: rgb(123, 123, 123); font-weight: bold;">日期</text></g><g transform="translate(0,0)" fill="none" font-size="10" font-family="sans-serif" text-anchor="end"><path class="domain" stroke="currentColor" d="M0.5,570.5V0.5"/><g class="tick" opacity="1" transform="translate(0,570.5)"><line stroke="currentColor" x2="-6"/><text fill="currentColor" x="-9" dy="0.32em">10,000</text></g><g class="tick" opacity="1" transform="translate(0,526.6538461538462)"><line stroke="currentColor" x2="-6"/><text fill="currentColor" x="-9" dy="0.32em">20,000</text></g><g class="tick" opacity="1" transform="translate(0,482.8076923076923)"><line stroke="currentColor" x2="-6"/><text fill="currentColor" x="-9" dy="0.32em">30,000</text></g><g class="tick" opacity="1" transform="translate(0,438.9615384615384)"><line stroke="currentColor" x2="-6"/><text fill="currentColor" x="-9" dy="0.32em">40,000</text></g><g class="tick" opacity="1" transform="translate(0,395.1153846153846)"><line stroke="currentColor" x2="-6"/><text fill="currentColor" x="-9" dy="0.32em">50,000</text></g><g class="tick" opacity="1" transform="translate(0,351.2692307692308)"><line stroke="currentColor" x2="-6"/><text fill="currentColor" x="-9" dy="0.32em">60,000</text></g><g class="tick" opacity="1" transform="translate(0,307.4230769230769)"><line stroke="currentColor" x2="-6"/><text fill="currentColor" x="-9" dy="0.32em">70,000</text></g><g class="tick" opacity="1" transform="translate(0,263.5769230769231)"><line stroke="currentColor" x2="-6"/><text fill="currentColor" x="-9" dy="0.32em">80,000</text></g><g class="tick" opacity="1" transform="translate(0,219.7307692307692)"><line stroke="currentColor" x2="-6"/><text fill="currentColor" x="-9" dy="0.32em">90,000</text></g><g class="tick" opacity="1" transform="translate(0,175.8846153846154)"><line stroke="currentColor" x2="-6"/><text fill="currentColor" x="-9" dy="0.32em">100,000</text></g><g class="tick" opacity="1" transform="translate(0,132.03846153846152)"><line stroke="currentColor" x2="-6"/><text fill="currentColor" x="-9" dy="0.32em">110,000</text></g><g class="tick" opacity="1" transform="translate(0,88.1923076923077)"><line stroke="currentColor" x2="-6"/><text fill="currentColor" x="-9" dy="0.32em">120,000</text></g><g class="tick" opacity="1" transform="translate(0,44.34615384615382)"><line stroke="currentColor" x2="-6"/><text fill="currentColor" x="-9" dy="0.32em">130,000</text></g><g class="tick" opacity="1" transform="translate(0,0.5)"><line stroke="currentColor" x2="-6"/><text fill="currentColor" x="-9" dy="0.32em">140,000</text></g><text x="4" text-anchor="start" dominant-baseline="hanging" style="font-family: Arial, sans-serif; font-size: 12px; fill: rgb(123, 123, 123); font-weight: bold;">成交量</text></g></g><g id="viz"><g><path d="M0,546.7133076923077C4.065934065934067,546.7133076923077,4.065934065934067,528.39,8.131868131868133,528.39C12.1978021978022,528.39,12.1978021978022,509.1327692307692,16.263736263736266,509.1327692307692C20.329670329670332,509.1327692307692,20.329670329670332,521.2299230769231,24.395604395604398,521.2299230769231C36.5934065934066,521.2299230769231,36.5934065934066,400.77576923076924,48.791208791208796,400.77576923076924C52.85714285714286,400.77576923076924,52.85714285714286,465.76453846153845,56.92307692307693,465.76453846153845C60.98901098901099,465.76453846153845,60.98901098901099,519.2656153846153,65.05494505494507,519.2656153846153C69.12087912087912,519.2656153846153,69.12087912087912,519.4103076923077,73.18681318681318,519.4103076923077C77.25274725274724,519.4103076923077,77.25274725274724,257.79346153846154,81.31868131868131,257.79346153846154C93.5164835164835,257.79346153846154,93.5164835164835,453.8734615384615,105.71428571428571,453.8734615384615C109.78021978021978,453.8734615384615,109.78021978021978,488.3409230769231,113.84615384615385,488.3409230769231C166.7032967032967,488.3409230769231,166.7032967032967,33.24415384615384,219.56043956043956,33.24415384615384C223.62637362637363,33.24415384615384,223.62637362637363,289.09084615384614,227.6923076923077,289.09084615384614C231.75824175824175,289.09084615384614,231.75824175824175,463.296,235.8241758241758,463.296C239.89010989010987,463.296,239.89010989010987,419.0946923076923,243.95604395604394,419.0946923076923C248.02197802197801,419.0946923076923,248.02197802197801,467.86038461538465,252.0879120879121,467.86038461538465C264.2857142857143,467.86038461538465,264.2857142857143,474.1040769230769,276.4835164835165,474.1040769230769C280.54945054945057,474.1040769230769,280.54945054945057,508.33476923076927,284.61538461538464,508.33476923076927C288.68131868131866,508.33476923076927,288.68131868131866,453.1412307692308,292.74725274725273,453.1412307692308C296.8131868131868,453.1412307692308,296.8131868131868,528.9424615384615,300.8791208791209,528.9424615384615C304.94505494505495,528.9424615384615,304.94505494505495,480.9879230769231,309.010989010989,480.9879230769231C321.20879120879124,480.9879230769231,321.20879120879124,512.0178461538461,333.4065934065934,512.0178461538461C337.4725274725275,512.0178461538461,337.4725274725275,513.1052307692307,341.53846153846155,513.1052307692307C345.60439560439556,513.1052307692307,345.60439560439556,330.97707692307694,349.67032967032964,330.97707692307694C353.7362637362637,330.97707692307694,353.7362637362637,479.8786153846154,357.8021978021978,479.8786153846154C361.86813186813185,479.8786153846154,361.86813186813185,484.4780769230769,365.9340659340659,484.4780769230769C378.13186813186815,484.4780769230769,378.13186813186815,523.8913846153846,390.32967032967036,523.8913846153846C394.39560439560444,523.8913846153846,394.39560439560444,551.8696153846154,398.46153846153845,551.8696153846154C402.5274725274726,551.8696153846154,402.5274725274726,500.88530769230766,406.59340659340666,500.88530769230766C410.6593406593407,500.88530769230766,410.6593406593407,500.3503846153846,414.72527472527474,500.3503846153846C418.79120879120876,500.3503846153846,418.79120879120876,428.3462307692308,422.85714285714283,428.3462307692308C451.31868131868134,428.3462307692308,451.31868131868134,540.381923076923,479.7802197802198,540.381923076923C483.8461538461538,540.381923076923,483.8461538461538,510.15000000000003,487.9120879120879,510.15000000000003C500.1098901098901,510.15000000000003,500.1098901098901,516.0823846153846,512.3076923076923,516.0823846153846C516.3736263736264,516.0823846153846,516.3736263736264,502.56461538461537,520.4395604395605,502.56461538461537C524.5054945054945,502.56461538461537,524.5054945054945,504.92353846153844,528.5714285714286,504.92353846153844C532.6373626373627,504.92353846153844,532.6373626373627,517.8406153846154,536.7032967032967,517.8406153846154C540.7692307692307,517.8406153846154,540.7692307692307,503.1916153846154,544.8351648351648,503.1916153846154C557.032967032967,503.1916153846154,557.032967032967,517.5994615384615,569.2307692307693,517.5994615384615C573.2967032967033,517.5994615384615,573.2967032967033,522.0235384615385,577.3626373626373,522.0235384615385C581.4285714285713,522.0235384615385,581.4285714285713,510.5753076923077,585.4945054945055,510.5753076923077C589.5604395604396,510.5753076923077,589.5604395604396,514.3197692307692,593.6263736263736,514.3197692307692C597.6923076923076,514.3197692307692,597.6923076923076,466.4178461538462,601.7582417582418,466.4178461538462C613.9560439560439,466.4178461538462,613.9560439560439,560.445923076923,626.1538461538462,560.445923076923C630.2197802197802,560.445923076923,630.2197802197802,532.6474615384616,634.2857142857142,532.6474615384616C638.3516483516484,532.6474615384616,638.3516483516484,418.06869230769234,642.4175824175825,418.06869230769234C646.4835164835165,418.06869230769234,646.4835164835165,490.5288461538462,650.5494505494505,490.5288461538462C654.6153846153845,490.5288461538462,654.6153846153845,513.7322307692308,658.6813186813187,513.7322307692308C670.8791208791208,513.7322307692308,670.8791208791208,541.7455384615384,683.0769230769231,541.7455384615384C687.1428571428571,541.7455384615384,687.1428571428571,536.6023846153846,691.2087912087912,536.6023846153846C695.2747252747253,536.6023846153846,695.2747252747253,536.8128461538462,699.3406593406593,536.8128461538462" stroke="#1f77b4" fill="none"/><text font-family="sans-serif" font-size="10" class="labels" x="219.56043956043956" y="33.24415384615384" dx="0" dy="-4" text-anchor="middle"/></g></g></g><text y="4" x="4" style="font-family: Arial, sans-serif; font-size: 12px; fill: black; font-weight: bold; dominant-baseline: hanging;"/></g><g id="grid"><rect x="0" y="0" width="805" height="600" fill="none" stroke="#ccc"/></g></g></svg>